{
    "asset" : {
        "generator" : "Khronos glTF Blender I/O v3.4.50",
        "version" : "2.0"
    },
    "scene" : 0,
    "scenes" : [
        {
            "name" : "Scene",
            "nodes" : [
                0,
                1,
                2,
                3,
                4
            ]
        }
    ],
    "nodes" : [
        {
            "mesh" : 0,
            "name" : "fence",
            "rotation" : [
                0.231652170419693,
                -0.6680851578712463,
                0.6680849194526672,
                0.23165097832679749
            ],
            "scale" : [
                0.00615485105663538,
                0.00615485105663538,
                0.00615485105663538
            ],
            "translation" : [
                -14.14286994934082,
                -0.051481857895851135,
                -5.055609703063965
            ]
        },
        {
            "mesh" : 1,
            "name" : "grass_mesh",
            "rotation" : [
                0.24076072871685028,
                -0.6648565530776978,
                0.6648566722869873,
                0.24076049029827118
            ],
            "scale" : [
                0.00615485105663538,
                0.00615485105663538,
                0.00615485105663538
            ],
            "translation" : [
                -9.064711570739746,
                -0.03893573582172394,
                0
            ]
        },
        {
            "mesh" : 2,
            "name" : "grass_plane",
            "rotation" : [
                0.24076072871685028,
                -0.6648565530776978,
                0.6648566722869873,
                0.24076049029827118
            ],
            "scale" : [
                0.00615485105663538,
                0.00615485105663538,
                0.00615485105663538
            ],
            "translation" : [
                -9.064711570739746,
                -0.03893573582172394,
                0
            ]
        },
        {
            "mesh" : 3,
            "name" : "hovel",
            "rotation" : [
                0.24076072871685028,
                -0.6648565530776978,
                0.6648566722869873,
                0.24076049029827118
            ],
            "scale" : [
                0.00615485105663538,
                0.00615485105663538,
                0.00615485105663538
            ],
            "translation" : [
                -9.064711570739746,
                -0.03893573582172394,
                0
            ]
        },
        {
            "mesh" : 4,
            "name" : "soil_beds",
            "rotation" : [
                0.24076072871685028,
                -0.6648565530776978,
                0.6648566722869873,
                0.24076049029827118
            ],
            "scale" : [
                0.00615485105663538,
                0.00615485105663538,
                0.00615485105663538
            ],
            "translation" : [
                -9.064711570739746,
                -0.03893573582172394,
                0
            ]
        }
    ],
    "animations" : [
        {
            "channels" : [
                {
                    "sampler" : 0,
                    "target" : {
                        "node" : 0,
                        "path" : "translation"
                    }
                },
                {
                    "sampler" : 1,
                    "target" : {
                        "node" : 0,
                        "path" : "rotation"
                    }
                },
                {
                    "sampler" : 2,
                    "target" : {
                        "node" : 0,
                        "path" : "scale"
                    }
                }
            ],
            "name" : "fence",
            "samplers" : [
                {
                    "input" : 20,
                    "interpolation" : "LINEAR",
                    "output" : 21
                },
                {
                    "input" : 20,
                    "interpolation" : "LINEAR",
                    "output" : 22
                },
                {
                    "input" : 20,
                    "interpolation" : "LINEAR",
                    "output" : 23
                }
            ]
        },
        {
            "channels" : [
                {
                    "sampler" : 0,
                    "target" : {
                        "node" : 1,
                        "path" : "translation"
                    }
                },
                {
                    "sampler" : 1,
                    "target" : {
                        "node" : 1,
                        "path" : "rotation"
                    }
                },
                {
                    "sampler" : 2,
                    "target" : {
                        "node" : 1,
                        "path" : "scale"
                    }
                }
            ],
            "name" : "grass_mesh",
            "samplers" : [
                {
                    "input" : 20,
                    "interpolation" : "LINEAR",
                    "output" : 24
                },
                {
                    "input" : 20,
                    "interpolation" : "LINEAR",
                    "output" : 25
                },
                {
                    "input" : 20,
                    "interpolation" : "LINEAR",
                    "output" : 26
                }
            ]
        },
        {
            "channels" : [
                {
                    "sampler" : 0,
                    "target" : {
                        "node" : 2,
                        "path" : "translation"
                    }
                },
                {
                    "sampler" : 1,
                    "target" : {
                        "node" : 2,
                        "path" : "rotation"
                    }
                },
                {
                    "sampler" : 2,
                    "target" : {
                        "node" : 2,
                        "path" : "scale"
                    }
                }
            ],
            "name" : "grass_plane",
            "samplers" : [
                {
                    "input" : 20,
                    "interpolation" : "LINEAR",
                    "output" : 27
                },
                {
                    "input" : 20,
                    "interpolation" : "LINEAR",
                    "output" : 28
                },
                {
                    "input" : 20,
                    "interpolation" : "LINEAR",
                    "output" : 29
                }
            ]
        },
        {
            "channels" : [
                {
                    "sampler" : 0,
                    "target" : {
                        "node" : 3,
                        "path" : "translation"
                    }
                },
                {
                    "sampler" : 1,
                    "target" : {
                        "node" : 3,
                        "path" : "rotation"
                    }
                },
                {
                    "sampler" : 2,
                    "target" : {
                        "node" : 3,
                        "path" : "scale"
                    }
                }
            ],
            "name" : "hovel",
            "samplers" : [
                {
                    "input" : 20,
                    "interpolation" : "LINEAR",
                    "output" : 30
                },
                {
                    "input" : 20,
                    "interpolation" : "LINEAR",
                    "output" : 31
                },
                {
                    "input" : 20,
                    "interpolation" : "LINEAR",
                    "output" : 32
                }
            ]
        },
        {
            "channels" : [
                {
                    "sampler" : 0,
                    "target" : {
                        "node" : 4,
                        "path" : "translation"
                    }
                },
                {
                    "sampler" : 1,
                    "target" : {
                        "node" : 4,
                        "path" : "rotation"
                    }
                },
                {
                    "sampler" : 2,
                    "target" : {
                        "node" : 4,
                        "path" : "scale"
                    }
                }
            ],
            "name" : "soil_beds",
            "samplers" : [
                {
                    "input" : 20,
                    "interpolation" : "LINEAR",
                    "output" : 33
                },
                {
                    "input" : 20,
                    "interpolation" : "LINEAR",
                    "output" : 34
                },
                {
                    "input" : 20,
                    "interpolation" : "LINEAR",
                    "output" : 35
                }
            ]
        }
    ],
    "materials" : [
        {
            "doubleSided" : true,
            "emissiveFactor" : [
                1,
                1,
                1
            ],
            "emissiveTexture" : {
                "index" : 0
            },
            "name" : "live to serf",
            "pbrMetallicRoughness" : {
                "baseColorFactor" : [
                    0,
                    0,
                    0,
                    1
                ]
            }
        }
    ],
    "meshes" : [
        {
            "name" : "fence",
            "primitives" : [
                {
                    "attributes" : {
                        "POSITION" : 0,
                        "TEXCOORD_0" : 1,
                        "NORMAL" : 2
                    },
                    "indices" : 3,
                    "material" : 0
                }
            ]
        },
        {
            "name" : "grass_mesh",
            "primitives" : [
                {
                    "attributes" : {
                        "POSITION" : 4,
                        "TEXCOORD_0" : 5,
                        "NORMAL" : 6
                    },
                    "indices" : 7,
                    "material" : 0
                }
            ]
        },
        {
            "name" : "grass_plane",
            "primitives" : [
                {
                    "attributes" : {
                        "POSITION" : 8,
                        "TEXCOORD_0" : 9,
                        "NORMAL" : 10
                    },
                    "indices" : 11,
                    "material" : 0
                }
            ]
        },
        {
            "name" : "hovel",
            "primitives" : [
                {
                    "attributes" : {
                        "POSITION" : 12,
                        "TEXCOORD_0" : 13,
                        "NORMAL" : 14
                    },
                    "indices" : 15,
                    "material" : 0
                }
            ]
        },
        {
            "name" : "farm.004",
            "primitives" : [
                {
                    "attributes" : {
                        "POSITION" : 16,
                        "TEXCOORD_0" : 17,
                        "NORMAL" : 18
                    },
                    "indices" : 19,
                    "material" : 0
                }
            ]
        }
    ],
    "textures" : [
        {
            "sampler" : 0,
            "source" : 0
        }
    ],
    "images" : [
        {
            "bufferView" : 4,
            "mimeType" : "image/png",
            "name" : "colour-palette"
        }
    ],
    "accessors" : [
        {
            "bufferView" : 0,
            "componentType" : 5126,
            "count" : 24552,
            "max" : [
                3318.65771484375,
                339.3092346191406,
                17.99245262145996
            ],
            "min" : [
                -1934.203369140625,
                -4586.5419921875,
                -214.58596801757812
            ],
            "type" : "VEC3"
        },
        {
            "bufferView" : 1,
            "componentType" : 5126,
            "count" : 24552,
            "type" : "VEC2"
        },
        {
            "bufferView" : 2,
            "componentType" : 5126,
            "count" : 24552,
            "type" : "VEC3"
        },
        {
            "bufferView" : 3,
            "componentType" : 5123,
            "count" : 36828,
            "type" : "SCALAR"
        },
        {
            "bufferView" : 5,
            "componentType" : 5126,
            "count" : 848,
            "max" : [
                1665.0234375,
                1216.889404296875,
                14.682398796081543
            ],
            "min" : [
                -1222.1671142578125,
                -1483.83642578125,
                -170.00653076171875
            ],
            "type" : "VEC3"
        },
        {
            "bufferView" : 6,
            "componentType" : 5126,
            "count" : 848,
            "type" : "VEC2"
        },
        {
            "bufferView" : 7,
            "componentType" : 5126,
            "count" : 848,
            "type" : "VEC3"
        },
        {
            "bufferView" : 8,
            "componentType" : 5123,
            "count" : 2664,
            "type" : "SCALAR"
        },
        {
            "bufferView" : 9,
            "componentType" : 5126,
            "count" : 4,
            "max" : [
                8275.2509765625,
                15262.701171875,
                -6.323928356170654
            ],
            "min" : [
                -16803.041015625,
                -8824.951171875,
                -6.329471111297607
            ],
            "type" : "VEC3"
        },
        {
            "bufferView" : 10,
            "componentType" : 5126,
            "count" : 4,
            "type" : "VEC2"
        },
        {
            "bufferView" : 11,
            "componentType" : 5126,
            "count" : 4,
            "type" : "VEC3"
        },
        {
            "bufferView" : 12,
            "componentType" : 5123,
            "count" : 6,
            "type" : "SCALAR"
        },
        {
            "bufferView" : 13,
            "componentType" : 5126,
            "count" : 8445,
            "max" : [
                1523.794677734375,
                1791.76513671875,
                67.62293243408203
            ],
            "min" : [
                8.976686477661133,
                928.723388671875,
                -992.4801025390625
            ],
            "type" : "VEC3"
        },
        {
            "bufferView" : 14,
            "componentType" : 5126,
            "count" : 8445,
            "type" : "VEC2"
        },
        {
            "bufferView" : 15,
            "componentType" : 5126,
            "count" : 8445,
            "type" : "VEC3"
        },
        {
            "bufferView" : 16,
            "componentType" : 5123,
            "count" : 12426,
            "type" : "SCALAR"
        },
        {
            "bufferView" : 17,
            "componentType" : 5126,
            "count" : 3598,
            "max" : [
                2844.51318359375,
                791.797607421875,
                13.757412910461426
            ],
            "min" : [
                -939.5744018554688,
                -2705.998779296875,
                -70.20942687988281
            ],
            "type" : "VEC3"
        },
        {
            "bufferView" : 18,
            "componentType" : 5126,
            "count" : 3598,
            "type" : "VEC2"
        },
        {
            "bufferView" : 19,
            "componentType" : 5126,
            "count" : 3598,
            "type" : "VEC3"
        },
        {
            "bufferView" : 20,
            "componentType" : 5123,
            "count" : 5412,
            "type" : "SCALAR"
        },
        {
            "bufferView" : 21,
            "componentType" : 5126,
            "count" : 2,
            "max" : [
                0.041666666666666664
            ],
            "min" : [
                0
            ],
            "type" : "SCALAR"
        },
        {
            "bufferView" : 22,
            "componentType" : 5126,
            "count" : 2,
            "type" : "VEC3"
        },
        {
            "bufferView" : 23,
            "componentType" : 5126,
            "count" : 2,
            "type" : "VEC4"
        },
        {
            "bufferView" : 24,
            "componentType" : 5126,
            "count" : 2,
            "type" : "VEC3"
        },
        {
            "bufferView" : 25,
            "componentType" : 5126,
            "count" : 2,
            "type" : "VEC3"
        },
        {
            "bufferView" : 26,
            "componentType" : 5126,
            "count" : 2,
            "type" : "VEC4"
        },
        {
            "bufferView" : 27,
            "componentType" : 5126,
            "count" : 2,
            "type" : "VEC3"
        },
        {
            "bufferView" : 28,
            "componentType" : 5126,
            "count" : 2,
            "type" : "VEC3"
        },
        {
            "bufferView" : 29,
            "componentType" : 5126,
            "count" : 2,
            "type" : "VEC4"
        },
        {
            "bufferView" : 30,
            "componentType" : 5126,
            "count" : 2,
            "type" : "VEC3"
        },
        {
            "bufferView" : 31,
            "componentType" : 5126,
            "count" : 2,
            "type" : "VEC3"
        },
        {
            "bufferView" : 32,
            "componentType" : 5126,
            "count" : 2,
            "type" : "VEC4"
        },
        {
            "bufferView" : 33,
            "componentType" : 5126,
            "count" : 2,
            "type" : "VEC3"
        },
        {
            "bufferView" : 34,
            "componentType" : 5126,
            "count" : 2,
            "type" : "VEC3"
        },
        {
            "bufferView" : 35,
            "componentType" : 5126,
            "count" : 2,
            "type" : "VEC4"
        },
        {
            "bufferView" : 36,
            "componentType" : 5126,
            "count" : 2,
            "type" : "VEC3"
        }
    ],
    "bufferViews" : [
        {
            "buffer" : 0,
            "byteLength" : 294624,
            "byteOffset" : 0,
            "target" : 34962
        },
        {
            "buffer" : 0,
            "byteLength" : 196416,
            "byteOffset" : 294624,
            "target" : 34962
        },
        {
            "buffer" : 0,
            "byteLength" : 294624,
            "byteOffset" : 491040,
            "target" : 34962
        },
        {
            "buffer" : 0,
            "byteLength" : 73656,
            "byteOffset" : 785664,
            "target" : 34963
        },
        {
            "buffer" : 0,
            "byteLength" : 2390,
            "byteOffset" : 859320
        },
        {
            "buffer" : 0,
            "byteLength" : 10176,
            "byteOffset" : 861712,
            "target" : 34962
        },
        {
            "buffer" : 0,
            "byteLength" : 6784,
            "byteOffset" : 871888,
            "target" : 34962
        },
        {
            "buffer" : 0,
            "byteLength" : 10176,
            "byteOffset" : 878672,
            "target" : 34962
        },
        {
            "buffer" : 0,
            "byteLength" : 5328,
            "byteOffset" : 888848,
            "target" : 34963
        },
        {
            "buffer" : 0,
            "byteLength" : 48,
            "byteOffset" : 894176,
            "target" : 34962
        },
        {
            "buffer" : 0,
            "byteLength" : 32,
            "byteOffset" : 894224,
            "target" : 34962
        },
        {
            "buffer" : 0,
            "byteLength" : 48,
            "byteOffset" : 894256,
            "target" : 34962
        },
        {
            "buffer" : 0,
            "byteLength" : 12,
            "byteOffset" : 894304,
            "target" : 34963
        },
        {
            "buffer" : 0,
            "byteLength" : 101340,
            "byteOffset" : 894316,
            "target" : 34962
        },
        {
            "buffer" : 0,
            "byteLength" : 67560,
            "byteOffset" : 995656,
            "target" : 34962
        },
        {
            "buffer" : 0,
            "byteLength" : 101340,
            "byteOffset" : 1063216,
            "target" : 34962
        },
        {
            "buffer" : 0,
            "byteLength" : 24852,
            "byteOffset" : 1164556,
            "target" : 34963
        },
        {
            "buffer" : 0,
            "byteLength" : 43176,
            "byteOffset" : 1189408,
            "target" : 34962
        },
        {
            "buffer" : 0,
            "byteLength" : 28784,
            "byteOffset" : 1232584,
            "target" : 34962
        },
        {
            "buffer" : 0,
            "byteLength" : 43176,
            "byteOffset" : 1261368,
            "target" : 34962
        },
        {
            "buffer" : 0,
            "byteLength" : 10824,
            "byteOffset" : 1304544,
            "target" : 34963
        },
        {
            "buffer" : 0,
            "byteLength" : 8,
            "byteOffset" : 1315368
        },
        {
            "buffer" : 0,
            "byteLength" : 24,
            "byteOffset" : 1315376
        },
        {
            "buffer" : 0,
            "byteLength" : 32,
            "byteOffset" : 1315400
        },
        {
            "buffer" : 0,
            "byteLength" : 24,
            "byteOffset" : 1315432
        },
        {
            "buffer" : 0,
            "byteLength" : 24,
            "byteOffset" : 1315456
        },
        {
            "buffer" : 0,
            "byteLength" : 32,
            "byteOffset" : 1315480
        },
        {
            "buffer" : 0,
            "byteLength" : 24,
            "byteOffset" : 1315512
        },
        {
            "buffer" : 0,
            "byteLength" : 24,
            "byteOffset" : 1315536
        },
        {
            "buffer" : 0,
            "byteLength" : 32,
            "byteOffset" : 1315560
        },
        {
            "buffer" : 0,
            "byteLength" : 24,
            "byteOffset" : 1315592
        },
        {
            "buffer" : 0,
            "byteLength" : 24,
            "byteOffset" : 1315616
        },
        {
            "buffer" : 0,
            "byteLength" : 32,
            "byteOffset" : 1315640
        },
        {
            "buffer" : 0,
            "byteLength" : 24,
            "byteOffset" : 1315672
        },
        {
            "buffer" : 0,
            "byteLength" : 24,
            "byteOffset" : 1315696
        },
        {
            "buffer" : 0,
            "byteLength" : 32,
            "byteOffset" : 1315720
        },
        {
            "buffer" : 0,
            "byteLength" : 24,
            "byteOffset" : 1315752
        }
    ],
    "samplers" : [
        {
            "magFilter" : 9728,
            "minFilter" : 9984
        }
    ],
    "buffers" : [
        {
            "byteLength" : 1315776,
            "uri" : "data:application/octet-stream;base64,"
        }
    ]
}
